<?xml version="1.0" encoding="UTF-8" standalone="no"?>
<!-- Created with Inkscape (http://www.inkscape.org/) -->

<svg
   width="283.86337mm"
   height="76.663773mm"
   viewBox="0 0 283.86337 76.663772"
   version="1.1"
   id="svg1"
   xmlns="http://www.w3.org/2000/svg"
   xmlns:svg="http://www.w3.org/2000/svg">
  <defs
     id="defs1" />
  <g
     id="layer1"
     transform="translate(-7.5380766,-55.870675)">
    <path
       id="path2"
       d="m 230.11134,85.160827 c 1.61075,2.085719 2.56868,4.700903 2.56868,7.540945 v 0 c 0,0.830049 -0.0802,1.644602 -0.23746,2.43277 v 0 c 0.078,-0.07801 0.15947,-0.156602 0.23746,-0.234617 v 0 c 0.73313,-0.715315 1.44556,-1.451858 2.14827,-2.198153 v 0 c 0.70211,-0.751456 1.3939,-1.510937 2.07539,-2.270426 v 0 c 1.2138,-1.362949 2.40867,-2.741378 3.6041,-4.119815 v 0 c 0.48877,-0.563306 0.98497,-1.132923 1.48801,-1.712286 v 0 c -0.98089,-2.620921 -2.42414,-5.016403 -4.23339,-7.0895 v 0 z"
       style="fill:#000000;stroke:none;stroke-width:0.57363" />
    <path
       id="path4"
       d="m 221.86024,80.443863 c 2.15341,0.266737 4.1376,1.088178 5.80054,2.318043 v 0 l 7.66314,-7.663709 c -3.67525,-3.132596 -8.34232,-5.134565 -13.46368,-5.471288 v 0 z"
       style="fill:#000000;stroke:none;stroke-width:0.57363" />
    <path
       id="path6"
       d="m 205.14119,75.270288 7.65166,7.648214 c 1.61019,-1.242479 3.53701,-2.096042 5.63765,-2.42244 v 0 -10.84047 c -5.06917,0.415307 -9.67371,2.461448 -13.28931,5.614696"
       style="fill:#000000;stroke:none;stroke-width:0.57363" />
    <path
       id="path8"
       d="m 197.27386,90.984325 h 10.82728 c 0.28967,-2.079984 1.09964,-3.999351 2.28992,-5.612403 v 0 l -7.66197,-7.663704 c -3.09531,3.630509 -5.0841,8.227583 -5.45523,13.276107"
       style="fill:#000000;stroke:none;stroke-width:0.57363" />
    <path
       id="path10"
       d="m 253.06344,98.615331 c -0.84782,0.971158 -1.70139,1.939439 -2.56529,2.896839 v 0 13.10803 H 261.174 V 90.028657 c 0,-0.15144 0.003,-0.302878 0.0103,-0.454315 v 0 c -2.85322,2.84578 -5.51487,6.061554 -8.12089,9.040989"
       style="fill:#000000;stroke:none;stroke-width:0.57363" />
    <path
       id="path12"
       d="m 243.08282,88.54582 c -1.22298,1.407116 -2.43333,2.803909 -3.64198,4.155952 v 0 c -2.2423,2.511357 -4.47892,4.863245 -6.76082,6.833665 v 0 c -2.51361,2.172913 -5.08004,3.880613 -7.7652,4.816203 v 0 c -7.58569,2.64559 -15.69855,-1.90847 -16.81368,-9.934711 v 0 h -10.82728 c 0.60059,8.189731 5.46899,15.195481 12.38813,18.801891 v 0 c 3.19283,1.66239 6.82103,2.60371 10.66894,2.60371 v 0 c 0.0413,0 0.0832,0 0.12507,-9.9e-4 v 0 c 4.3722,-0.0224 8.46563,-1.36582 12.22402,-3.43891 v 0 c 0,0 5.7954,-3.30928 10.77282,-8.37444 v 0 c 2.4643,-2.44655 4.79783,-5.065153 7.04531,-7.636169 v 0 c 7.32412,-8.379022 13.70405,-16.262427 20.4517,-16.115578 v 0 c 5.35652,0 9.77517,4.418674 9.77517,9.772372 v 0 1.117434 23.474111 h 10.67643 V 90.028766 c 0,-7.271914 -3.84962,-13.688547 -9.60832,-17.316187 v 0 c -2.94902,-1.859137 -6.40057,-2.986894 -10.09132,-3.119976 v 0 l -0.51968,-0.01204 c -0.13939,-0.0034 -0.27875,-0.0046 -0.41761,-0.0046 v 0 c -11.15883,-7.69e-4 -19.63826,9.698947 -27.6817,18.969965"
       style="fill:#000000;stroke:none;stroke-width:0.57363" />
    <path
       id="path14"
       d="m 48.467769,72.086063 c 0,0 -10.676415,5.66403 -10.676415,17.945461 v 0 12.281426 12.30725 H 48.467769 V 102.31295 90.031524 c 0,-5.35599 4.41925,-9.775237 9.776384,-9.775237 v 0 c 5.353123,0 9.774666,4.419247 9.774666,9.775237 v 0 24.588676 h 10.67412 V 90.031524 c 0,-11.247176 -9.20161,-20.451077 -20.448786,-20.451077 v 0 c -3.534708,0 -6.868076,0.909203 -9.776384,2.505616"
       style="fill:#000000;stroke:none;stroke-width:0.57363" />
    <path
       id="path16"
       d="m 18.214492,72.086063 c 0,0 -10.6764151,5.66403 -10.6764151,17.945461 v 0 12.281426 12.30725 H 18.214492 V 102.31295 90.031524 c 0,-5.35599 4.418674,-9.775237 9.775813,-9.775237 v 0 c 5.353692,0 9.774664,4.419247 9.774664,9.775237 v 0 24.588676 H 48.439085 V 90.031524 c 0,-11.247176 -9.201034,-20.451077 -20.44878,-20.451077 v 0 c -3.534714,0 -6.86808,0.909203 -9.775813,2.505616"
       style="fill:#000000;stroke:none;stroke-width:0.57363" />
    <path
       id="path18"
       d="m 82.715807,92.947289 c 0,12.146631 9.607171,23.022091 23.023813,23.022091 v 0 c 4.5248,0 8.81269,-1.26945 12.46384,-3.81005 v 0 c 3.65232,-2.46146 6.74876,-6.11377 8.81269,-10.95692 v 0 h -10.71771 c -1.98476,3.57314 -5.39844,5.8757 -10.47966,5.8757 v 0 c -5.953709,0.0797 -12.147202,-3.81121 -12.623315,-10.797454 v 0 h 35.090705 c 0.87421,-7.621828 -1.11055,-14.449183 -6.43039,-19.926781 v 0 c -4.04869,-4.207578 -9.76492,-6.669027 -16.27505,-6.669027 v 0 c -13.178597,0 -22.864923,10.876036 -22.864923,23.262441 M 105.65988,78.496961 c 7.62183,-0.07916 11.98888,5.716231 12.38526,9.844648 v 0 H 93.354934 c 0.396381,-4.286741 4.604533,-9.844648 12.304946,-9.844648"
       style="fill:#000000;stroke:none;stroke-width:0.57363" />
    <path
       id="path20"
       d="m 138.00863,55.870675 c -2.87158,0 -5.19996,2.327794 -5.19996,5.199959 v 0 53.549566 h 10.4005 V 61.070634 c 0,-2.872165 -2.32836,-5.199959 -5.19996,-5.199959 v 0 z"
       style="fill:#000000;stroke:none;stroke-width:0.57363" />
    <path
       id="path22"
       d="m 147.33301,92.947289 c 0,12.146631 9.60659,23.022091 23.0238,23.022091 v 0 c 4.5248,0 8.81212,-1.26945 12.46384,-3.81005 v 0 c 3.65232,-2.46146 6.74877,-6.11377 8.8127,-10.95692 v 0 h -10.71772 c -1.98477,3.57314 -5.39844,5.8757 -10.47965,5.8757 v 0 c -5.95428,0.0797 -12.14664,-3.81121 -12.62333,-10.797454 v 0 h 35.0907 c 0.87423,-7.621828 -1.11111,-14.449183 -6.43038,-19.926781 v 0 c -4.04926,-4.207578 -9.76491,-6.669027 -16.27506,-6.669027 v 0 c -13.17915,0 -22.8649,10.876036 -22.8649,23.262441 m 22.94407,-14.450328 c 7.62183,-0.07916 11.9883,5.716231 12.38527,9.844648 v 0 h -24.6908 c 0.39695,-4.286741 4.60453,-9.844648 12.30553,-9.844648"
       style="fill:#000000;stroke:none;stroke-width:0.57363" />
    <path
       id="path23"
       d="m 141.84898,132.53441 c -0.44367,0 -0.86549,-0.0739 -1.26378,-0.22184 -0.39997,-0.15125 -0.71087,-0.34955 -0.93439,-0.59155 l 0.20167,-0.3294 c 0.21006,0.22519 0.49409,0.40838 0.85372,0.55123 0.35796,0.13949 0.73441,0.20839 1.12933,0.20839 0.57307,0 1.00498,-0.10756 1.2974,-0.32267 0.29577,-0.21847 0.44366,-0.50584 0.44366,-0.86045 0,-0.26889 -0.0789,-0.48064 -0.23527,-0.63861 -0.15294,-0.16132 -0.3462,-0.28401 -0.57811,-0.36972 -0.22856,-0.0891 -0.53779,-0.17815 -0.92768,-0.26889 -0.4403,-0.11092 -0.79322,-0.21848 -1.06211,-0.32267 -0.26552,-0.10251 -0.49072,-0.26217 -0.67895,-0.47728 -0.18486,-0.21511 -0.27561,-0.5008 -0.27561,-0.86045 0,-0.29577 0.0756,-0.56466 0.22856,-0.80666 0.15629,-0.242 0.39324,-0.43359 0.71256,-0.57811 0.31762,-0.14285 0.71423,-0.2151 1.18983,-0.2151 0.33107,0 0.65878,0.0504 0.98145,0.14788 0.32266,0.0941 0.59995,0.2252 0.83355,0.38989 l -0.16134,0.35627 c -0.24199,-0.16469 -0.5092,-0.29074 -0.79993,-0.37644 -0.28737,-0.0892 -0.57139,-0.13445 -0.85373,-0.13445 -0.55626,0 -0.97809,0.1126 -1.26379,0.33612 -0.28737,0.2252 -0.43022,0.51425 -0.43022,0.86717 0,0.27392 0.0756,0.49072 0.22857,0.65205 0.15629,0.15796 0.34956,0.28065 0.57811,0.36973 0.22856,0.0857 0.54113,0.17476 0.94112,0.26889 0.43861,0.11259 0.78985,0.22015 1.05538,0.32265 0.26384,0.10419 0.48737,0.26049 0.67223,0.47057 0.18821,0.2067 0.28232,0.48903 0.28232,0.84699 0,0.29242 -0.0789,0.55796 -0.23527,0.79995 -0.15798,0.23864 -0.39996,0.42854 -0.726,0.57139 -0.32771,0.14452 -0.72937,0.21512 -1.20328,0.21512 z m 11.07656,-0.0403 -0.0134,-5.15595 -2.52084,4.35601 h -0.21511 l -2.52084,-4.33584 v 5.13578 h -0.43022 V 126.471 h 0.36972 l 2.69562,4.65177 2.68889,-4.65177 h 0.363 l 0.0134,6.02311 z m 7.9692,-1.694 h -3.48884 l -0.76633,1.694 h -0.47728 l 2.77629,-6.02311 h 0.43694 l 2.76955,6.02311 h -0.47055 z m -0.16132,-0.36973 -1.57973,-3.4754 -1.57973,3.4754 z m 8.40615,2.06373 -1.43855,-2.01666 c -0.21177,0.032 -0.4067,0.047 -0.58485,0.047 h -1.72089 v 1.96962 h -0.43695 v -6.02312 h 2.15784 c 0.75625,0 1.35118,0.1798 1.7814,0.53777 0.43022,0.35963 0.64533,0.85709 0.64533,1.49234 0,0.4756 -0.121,0.87725 -0.36299,1.20327 -0.24201,0.32268 -0.59156,0.54956 -1.04867,0.67896 l 1.50577,2.11078 z m -2.0234,-2.3595 c 0.64534,0 1.13607,-0.14116 1.47218,-0.42351 0.33946,-0.28233 0.51088,-0.68566 0.51088,-1.21 0,-0.51929 -0.17142,-0.92094 -0.51088,-1.20327 -0.33611,-0.2857 -0.82684,-0.43023 -1.47218,-0.43023 h -1.72089 v 3.26701 z m 6.82812,-3.26701 h -2.17128 v -0.3966 h 4.7795 v 0.3966 h -2.17128 v 5.62651 h -0.43694 z m 11.88827,5.66685 c -0.59155,0 -1.12598,-0.12941 -1.5999,-0.38989 -0.47056,-0.26385 -0.84363,-0.62854 -1.1159,-1.09573 -0.27391,-0.46552 -0.41005,-0.98816 -0.41005,-1.56628 0,-0.57812 0.13614,-1.09908 0.41005,-1.56628 0.27227,-0.46552 0.64534,-0.82852 1.1159,-1.089 0.47392,-0.26385 1.00835,-0.3966 1.5999,-0.3966 0.43357,0 0.83522,0.0705 1.20327,0.20838 0.36636,0.13948 0.68063,0.34788 0.94111,0.62517 l -0.27561,0.28233 c -0.484,-0.47392 -1.10077,-0.71256 -1.84861,-0.71256 -0.50753,0 -0.96633,0.11428 -1.37806,0.34283 -0.41343,0.22857 -0.73776,0.54787 -0.97473,0.95456 -0.23359,0.40334 -0.34955,0.85373 -0.34955,1.35117 0,0.49744 0.11596,0.95119 0.34955,1.35789 0.23697,0.40334 0.5613,0.71928 0.97473,0.94784 0.41173,0.22856 0.87053,0.34282 1.37806,0.34282 0.74281,0 1.35957,-0.23863 1.84861,-0.71927 l 0.27561,0.28234 c -0.26048,0.27393 -0.57643,0.48232 -0.94782,0.62516 -0.36805,0.14453 -0.76633,0.21512 -1.19656,0.21512 z m 7.76081,0 c -0.59155,0 -1.12596,-0.13109 -1.59989,-0.39662 -0.4756,-0.2689 -0.85036,-0.63356 -1.12261,-1.09572 -0.27393,-0.46552 -0.41006,-0.98481 -0.41006,-1.55956 0,-0.57308 0.13613,-1.09067 0.41006,-1.55283 0.27225,-0.46552 0.64701,-0.83021 1.12261,-1.09573 0.47393,-0.26889 1.00834,-0.40332 1.59989,-0.40332 0.59155,0 1.1243,0.13275 1.59989,0.3966 0.47897,0.26048 0.85373,0.62348 1.12261,1.089 0.27226,0.4672 0.41006,0.98816 0.41006,1.56628 0,0.57812 -0.1378,1.10076 -0.41006,1.56628 -0.26888,0.46719 -0.64364,0.83188 -1.12261,1.09573 -0.47559,0.26048 -1.00834,0.38989 -1.59989,0.38989 z m 0,-0.40335 c 0.50586,0 0.96296,-0.11426 1.37133,-0.34282 0.4067,-0.22856 0.72769,-0.5445 0.96129,-0.94784 0.23697,-0.4067 0.35628,-0.86045 0.35628,-1.35789 0,-0.49744 -0.11931,-0.94783 -0.35628,-1.35117 -0.2336,-0.40669 -0.55459,-0.72599 -0.96129,-0.95456 -0.40837,-0.22855 -0.86547,-0.34283 -1.37133,-0.34283 -0.50248,0 -0.9596,0.11428 -1.37133,0.34283 -0.40838,0.22857 -0.73105,0.54787 -0.96799,0.95456 -0.23361,0.40334 -0.34958,0.85373 -0.34958,1.35117 0,0.49744 0.11597,0.95119 0.34958,1.35789 0.23694,0.40334 0.55961,0.71928 0.96799,0.94784 0.41173,0.22856 0.86885,0.34282 1.37133,0.34282 z m 11.28327,-5.6601 v 6.02311 h -0.363 l -4.10728,-5.22989 v 5.22989 h -0.43695 V 126.471 h 0.36972 l 4.09384,5.22988 V 126.471 Z m 4.97446,0.3966 h -2.1713 v -0.3966 h 4.77952 v 0.3966 h -2.17128 v 5.62651 h -0.43694 z m 9.58926,5.62651 -1.43856,-2.01666 c -0.21173,0.032 -0.40669,0.047 -0.58483,0.047 h -1.72089 v 1.96962 h -0.43695 v -6.02312 h 2.15784 c 0.75625,0 1.35117,0.1798 1.78139,0.53777 0.43023,0.35963 0.64534,0.85709 0.64534,1.49234 0,0.4756 -0.121,0.87725 -0.36302,1.20327 -0.24198,0.32268 -0.59154,0.54956 -1.04865,0.67896 l 1.50578,2.11078 z m -2.02339,-2.3595 c 0.64533,0 1.13606,-0.14116 1.47217,-0.42351 0.33947,-0.28233 0.51089,-0.68566 0.51089,-1.21 0,-0.51929 -0.17142,-0.92094 -0.51089,-1.20327 -0.33611,-0.2857 -0.82684,-0.43023 -1.47217,-0.43023 h -1.72089 v 3.26701 z m 8.31372,2.39984 c -0.59157,0 -1.12597,-0.13109 -1.5999,-0.39662 -0.47559,-0.2689 -0.85035,-0.63356 -1.12259,-1.09572 -0.27394,-0.46552 -0.41007,-0.98481 -0.41007,-1.55956 0,-0.57308 0.13613,-1.09067 0.41007,-1.55283 0.27224,-0.46552 0.647,-0.83021 1.12259,-1.09573 0.47393,-0.26889 1.00833,-0.40332 1.5999,-0.40332 0.59156,0 1.1243,0.13275 1.5999,0.3966 0.47895,0.26048 0.85371,0.62348 1.1226,1.089 0.27225,0.4672 0.41007,0.98816 0.41007,1.56628 0,0.57812 -0.13782,1.10076 -0.41007,1.56628 -0.26889,0.46719 -0.64365,0.83188 -1.1226,1.09573 -0.4756,0.26048 -1.00834,0.38989 -1.5999,0.38989 z m 0,-0.40335 c 0.50585,0 0.96296,-0.11426 1.37133,-0.34282 0.4067,-0.22856 0.72768,-0.5445 0.96129,-0.94784 0.23695,-0.4067 0.35628,-0.86045 0.35628,-1.35789 0,-0.49744 -0.11933,-0.94783 -0.35628,-1.35117 -0.23361,-0.40669 -0.55459,-0.72599 -0.96129,-0.95456 -0.40837,-0.22855 -0.86548,-0.34283 -1.37133,-0.34283 -0.50249,0 -0.95961,0.11428 -1.37134,0.34283 -0.40838,0.22857 -0.73104,0.54787 -0.96799,0.95456 -0.2336,0.40334 -0.34957,0.85373 -0.34957,1.35117 0,0.49744 0.11597,0.95119 0.34957,1.35789 0.23695,0.40334 0.55961,0.71928 0.96799,0.94784 0.41173,0.22856 0.86885,0.34282 1.37134,0.34282 z m 6.37606,-5.6601 h 0.43691 v 5.6265 h 3.46868 v 0.39661 h -3.90559 z m 12.27309,6.06345 c -0.44367,0 -0.86551,-0.0739 -1.26378,-0.22183 -0.39999,-0.15125 -0.71089,-0.34956 -0.93441,-0.59156 l 0.20168,-0.3294 c 0.21006,0.22519 0.49408,0.40838 0.85373,0.55123 0.35794,0.13949 0.73437,0.20839 1.12933,0.20839 0.57306,0 1.00498,-0.10755 1.2974,-0.32267 0.29577,-0.21847 0.44366,-0.50584 0.44366,-0.86044 0,-0.2689 -0.079,-0.48065 -0.23528,-0.63862 -0.15295,-0.16132 -0.34621,-0.28401 -0.57812,-0.36972 -0.22855,-0.0892 -0.53777,-0.17814 -0.92766,-0.26889 -0.44031,-0.11092 -0.79323,-0.21847 -1.06213,-0.32266 -0.26552,-0.10252 -0.49072,-0.26217 -0.67894,-0.47729 -0.18484,-0.2151 -0.27561,-0.5008 -0.27561,-0.86045 0,-0.29577 0.0756,-0.56466 0.22856,-0.80666 0.1563,-0.242 0.39325,-0.43358 0.71256,-0.57811 0.31762,-0.14284 0.71424,-0.2151 1.18983,-0.2151 0.33106,0 0.65878,0.0504 0.98147,0.14788 0.32266,0.0941 0.59994,0.2252 0.83354,0.38989 l -0.16134,0.35627 c -0.24199,-0.16469 -0.5092,-0.29074 -0.79994,-0.37644 -0.28737,-0.0891 -0.57139,-0.13445 -0.85373,-0.13445 -0.55626,0 -0.97808,0.1126 -1.26376,0.33612 -0.28737,0.2252 -0.43024,0.51425 -0.43024,0.86717 0,0.27393 0.0756,0.49072 0.22854,0.65206 0.15632,0.15796 0.34959,0.28064 0.57814,0.36972 0.22856,0.0857 0.54112,0.17477 0.9411,0.26889 0.43864,0.1126 0.78987,0.22015 1.05539,0.32266 0.26384,0.10419 0.48739,0.26048 0.67222,0.47056 0.18821,0.20671 0.28236,0.48904 0.28236,0.84701 0,0.29241 -0.079,0.55795 -0.2353,0.79993 -0.15797,0.23864 -0.39997,0.42855 -0.72599,0.57139 -0.32771,0.14453 -0.72937,0.21512 -1.20328,0.21512 z m 7.10875,-2.11078 v 2.07044 h -0.44367 v -2.07044 L 248.6182,126.471 h 0.48401 l 2.178,3.54261 2.17798,-3.54261 h 0.45712 z m 6.69366,2.11078 c -0.44367,0 -0.86548,-0.0739 -1.26379,-0.22183 -0.39995,-0.15125 -0.71086,-0.34956 -0.93436,-0.59156 l 0.20167,-0.3294 c 0.21007,0.22519 0.49406,0.40838 0.85369,0.55123 0.35798,0.13949 0.73442,0.20839 1.12936,0.20839 0.57305,0 1.00495,-0.10755 1.29738,-0.32267 0.29579,-0.21847 0.44368,-0.50584 0.44368,-0.86044 0,-0.2689 -0.079,-0.48065 -0.23528,-0.63862 -0.15293,-0.16132 -0.3462,-0.28401 -0.57813,-0.36972 -0.22855,-0.0892 -0.53777,-0.17814 -0.92765,-0.26889 -0.44032,-0.11092 -0.79322,-0.21847 -1.06211,-0.32266 -0.26553,-0.10252 -0.49072,-0.26217 -0.67895,-0.47729 -0.18487,-0.2151 -0.27563,-0.5008 -0.27563,-0.86045 0,-0.29577 0.0756,-0.56466 0.22855,-0.80666 0.15629,-0.242 0.39328,-0.43358 0.71256,-0.57811 0.31765,-0.14284 0.71427,-0.2151 1.18986,-0.2151 0.33107,0 0.65878,0.0504 0.98145,0.14788 0.32267,0.0941 0.59993,0.2252 0.83352,0.38989 l -0.16132,0.35627 c -0.24198,-0.16469 -0.50919,-0.29074 -0.79996,-0.37644 -0.28737,-0.0891 -0.57136,-0.13445 -0.85369,-0.13445 -0.55627,0 -0.97808,0.1126 -1.26381,0.33612 -0.28735,0.2252 -0.4302,0.51425 -0.4302,0.86717 0,0.27393 0.0756,0.49072 0.22856,0.65206 0.15629,0.15796 0.34955,0.28064 0.57811,0.36972 0.22854,0.0857 0.54115,0.17477 0.94113,0.26889 0.4386,0.1126 0.78985,0.22015 1.05538,0.32266 0.26384,0.10419 0.48735,0.26048 0.67222,0.47056 0.18821,0.20671 0.28231,0.48904 0.28231,0.84701 0,0.29241 -0.0789,0.55795 -0.23528,0.79993 -0.15796,0.23864 -0.39994,0.42855 -0.72599,0.57139 -0.3277,0.14453 -0.72934,0.21512 -1.20328,0.21512 z m 6.44495,-5.66685 h -2.17129 v -0.3966 h 4.7795 v 0.3966 h -2.17126 v 5.62651 h -0.43695 z m 9.56239,5.2299 v 0.39661 h -4.15435 V 126.471 h 4.0266 v 0.3966 h -3.58968 v 2.37295 h 3.21325 v 0.38989 h -3.21325 v 2.46706 z m 9.0246,0.39661 -0.0135,-5.15595 -2.52084,4.35601 h -0.21509 l -2.52085,-4.33584 v 5.13578 h -0.43012 V 126.471 h 0.36973 l 2.69562,4.65177 2.68887,-4.65177 h 0.36299 l 0.0135,6.02311 z m 5.83151,0.0403 c -0.44367,0 -0.86547,-0.0739 -1.26379,-0.22184 -0.39997,-0.15125 -0.71084,-0.34955 -0.93438,-0.59155 l 0.2017,-0.3294 c 0.21006,0.22519 0.49408,0.40838 0.85371,0.55123 0.35795,0.13949 0.73441,0.20839 1.12932,0.20839 0.57306,0 1.00498,-0.10756 1.29738,-0.32267 0.29577,-0.21847 0.44367,-0.50584 0.44367,-0.86045 0,-0.26889 -0.0789,-0.48064 -0.23524,-0.63861 -0.15295,-0.16132 -0.34622,-0.28401 -0.57811,-0.36972 -0.2286,-0.0891 -0.5378,-0.17815 -0.9277,-0.26889 -0.4403,-0.11092 -0.79321,-0.21848 -1.06208,-0.32267 -0.26553,-0.10251 -0.49074,-0.26217 -0.67896,-0.47728 -0.18487,-0.21511 -0.27563,-0.5008 -0.27563,-0.86045 0,-0.29577 0.0756,-0.56466 0.22856,-0.80666 0.15628,-0.242 0.39325,-0.43359 0.71254,-0.57811 0.31763,-0.14285 0.71429,-0.2151 1.18986,-0.2151 0.33108,0 0.65878,0.0504 0.98145,0.14788 0.32266,0.0941 0.59995,0.2252 0.83354,0.38989 l -0.16134,0.35627 c -0.24199,-0.16469 -0.5092,-0.29074 -0.79994,-0.37644 -0.28735,-0.0892 -0.57136,-0.13445 -0.85371,-0.13445 -0.55628,0 -0.9781,0.1126 -1.26378,0.33612 -0.28739,0.2252 -0.43022,0.51425 -0.43022,0.86717 0,0.27392 0.0756,0.49072 0.22856,0.65205 0.15628,0.15796 0.34955,0.28065 0.5781,0.36973 0.22855,0.0857 0.54117,0.17476 0.94111,0.26889 0.43864,0.11259 0.78989,0.22015 1.0554,0.32265 0.26385,0.10419 0.48737,0.26049 0.67223,0.47057 0.1882,0.2067 0.28232,0.48903 0.28232,0.84699 0,0.29242 -0.0789,0.55796 -0.2353,0.79995 -0.15794,0.23864 -0.39993,0.42854 -0.72598,0.57139 -0.32769,0.14452 -0.72935,0.21512 -1.20329,0.21512 z m 0,0"
       style="fill:#000000;fill-opacity:1;fill-rule:nonzero;stroke:none;stroke-width:0.57363"
       aria-label="SMART CONTROL SYSTEMS" />
  </g>
</svg>
